<?xml version="1.0" encoding="UTF-8"?>
<svg width="858px" height="998px" viewBox="0 0 858 998" version="1.1" xmlns="http://www.w3.org/2000/svg" xmlns:xlink="http://www.w3.org/1999/xlink">
    <title>boss</title>
    <g id="页面-1" stroke="none" stroke-width="1" fill="none" fill-rule="evenodd">
        <g id="boss" transform="translate(428.739130, 498.763975) scale(-1, 1) translate(-428.739130, -498.763975) translate(-0.000000, -0.000000)" fill-rule="nonzero">
            <path d="M76.9503105,296.819876 L120.925466,296.819876 C157.571429,296.819876 175.894409,315.142857 175.894409,351.788819 L175.894409,395.757764 C175.894409,432.403727 157.571428,450.726708 120.925466,450.726708 L76.9503105,450.726708 C40.3043477,450.726708 21.9875771,432.403727 21.9875771,395.757764 L21.9875771,351.782608 C21.9875771,315.136646 40.3105586,296.813664 76.9565215,296.813664 L76.9503105,296.819876 Z" id="路径" fill="#4D4132"></path>
            <path d="M327.459627,742.869565 L551.062111,742.869565 L551.062111,885.726708 C551.062111,947.47205 501,997.52795 439.260869,997.52795 C377.509316,997.52795 327.459627,947.47205 327.459627,885.726708 L327.459627,742.869565 Z" id="路径" fill="#C5AC95"></path>
            <path d="M1.42108547e-14,505.68944 C1.42108547e-14,560.335403 44.2981367,604.63354 98.9440986,604.63354 C153.583851,604.63354 197.881987,560.335403 197.881987,505.68944 C197.881987,451.049688 153.583851,406.751553 98.9378877,406.751553 C44.2981357,406.751553 1.42108547e-14,451.049689 1.42108547e-14,505.695652 L1.42108547e-14,505.68944 Z" id="路径" fill="#C9AB90"></path>
            <path d="M406.751553,0 C588.900621,0 736.546584,147.652174 736.546584,329.801242 L736.546584,703.571429 C736.546584,800.714286 657.801242,879.459627 560.658385,879.459627 L208.869564,879.459627 C136.018633,879.459627 76.9565215,820.391304 76.9565215,747.540372 L76.9565215,329.801242 C76.9565215,147.652174 224.602484,0 406.751553,0 Z" id="路径" fill="#EBD3BD"></path>
            <path d="M318.807453,494.695652 C440.236024,494.695652 538.670808,585.751553 538.670808,698.074534 C538.670808,703.621118 538.42236,709.118013 537.956521,714.559006 L99.6521738,714.559006 C99.1763666,709.07706 98.9378877,703.57709 98.9378877,698.074534 C98.9378877,585.751553 197.37267,494.695652 318.807453,494.695652 Z M714.559006,296.819876 L758.534161,296.819876 C795.180124,296.819876 813.503105,315.142857 813.503105,351.788819 L813.503105,395.757764 C813.503105,432.403727 795.180124,450.726708 758.534161,450.726708 L714.559006,450.726708 C677.913043,450.726708 659.590062,432.403727 659.590062,395.757764 L659.590062,351.782608 C659.590062,315.136646 677.913043,296.813664 714.559006,296.813664 L714.559006,296.819876 Z" id="形状" fill="#4D4132"></path>
            <path d="M659.596273,505.68944 C659.596273,560.335403 703.89441,604.63354 758.534161,604.63354 C813.173912,604.63354 857.478261,560.335403 857.478261,505.68944 C857.478261,451.049688 813.173913,406.751553 758.534161,406.751553 C703.894409,406.751553 659.590062,451.049689 659.590062,505.695652 L659.596273,505.68944 Z" id="路径" fill="#EBD3BD"></path>
            <path d="M714.559005,494.695652 C714.555677,510.406463 722.934218,524.925626 736.538515,532.783913 C750.142811,540.642201 766.906046,540.645753 780.513671,532.79323 C794.121296,524.940707 802.505989,510.425095 802.509317,494.714285 C802.514461,470.427478 782.830285,450.73496 758.543478,450.729814 C734.256671,450.72467 714.564152,470.408845 714.559005,494.695652 L714.559005,494.695652 Z" id="路径" fill="#E89E80"></path>
            <path d="M98.9378877,362.776397 C98.6723588,394.373002 115.376687,423.683753 142.696753,439.559203 C170.016819,455.434654 203.753367,455.434654 231.073433,439.559203 C258.393499,423.683753 275.097827,394.373002 274.832298,362.776397 C274.832298,314.204969 235.453416,274.832298 186.881987,274.832298 C138.310559,274.832298 98.9378877,314.21118 98.9378877,362.782608 L98.9378877,362.776397 Z" id="路径" fill="#FFFFFF"></path>
            <path d="M142.913043,368.273292 C142.913043,389.524249 160.140347,406.751553 181.391304,406.751553 C202.64226,406.751553 219.869564,389.524249 219.869564,368.273292 C219.869564,347.022335 202.64226,329.795031 181.391304,329.795031 C160.140347,329.795031 142.913043,347.022335 142.913043,368.273292 Z" id="路径" fill="#514141"></path>
            <path d="M406.751553,362.776397 C406.751553,411.347826 446.130435,450.726708 494.701863,450.726708 C543.273292,450.726708 582.639751,411.347826 582.639751,362.776397 C582.639751,314.204969 543.26708,274.832298 494.695652,274.832298 C446.124225,274.832298 406.745342,314.21118 406.745342,362.782608 L406.751553,362.776397 Z" id="路径" fill="#FFFFFF"></path>
            <path d="M450.726708,368.273292 C450.550578,382.135634 457.845136,395.021005 469.821783,402.003519 C481.798429,408.986033 496.605298,408.986033 508.581944,402.003519 C520.55859,395.021005 527.853149,382.135634 527.677019,368.273292 C527.677019,347.022335 510.449714,329.795031 489.198758,329.795031 C467.947801,329.795031 450.720497,347.022335 450.720497,368.273292 L450.726708,368.273292 Z" id="路径" fill="#514141"></path>
            <path d="M313.310559,351.782608 C329.810302,351.787901 344.54441,362.113692 350.180124,377.621118 L391.186335,490.385093 C399.761685,513.974852 396.293968,540.264354 381.895127,560.823701 C367.496287,581.383049 343.975843,593.628525 318.875776,593.63354 L301.503105,593.63354 C275.86551,593.627245 251.914574,580.854086 237.625878,559.567481 C223.337182,538.280877 220.587297,511.27645 230.291925,487.546584 L275.416148,377.223603 C281.708862,361.837317 296.68099,351.782608 313.304348,351.782608 L313.310559,351.782608 Z" id="路径" fill="#E89E80"></path>
            <path d="M126.515527,183.863354 L225.894409,183.863354 C250.73913,183.863354 263.16149,196.285714 263.16149,221.130435 L263.16149,221.130435 C263.16149,245.975155 250.73913,258.397516 225.894409,258.397516 L126.515527,258.397516 C101.670807,258.397516 89.2484473,245.975155 89.2484473,221.130435 L89.2484473,221.130435 C89.2484473,196.285714 101.670807,183.863354 126.515527,183.863354 Z" id="路径" fill="#4D4132"></path>
            <path d="M437.074534,183.863354 L561.298137,183.863354 C586.142857,183.863354 598.565217,196.285714 598.565217,221.130435 L598.565217,221.130435 C598.565217,245.975155 586.142857,258.397516 561.298137,258.397516 L437.074534,258.397516 C412.229813,258.397516 399.807453,245.975155 399.807453,221.130435 L399.807453,221.130435 C399.807453,196.285714 412.229813,183.863354 437.074534,183.863354 Z" id="路径" fill="#4D4132"></path>
        </g>
    </g>
</svg>