<?xml version="1.0" encoding="UTF-8"?>
<svg width="1000px" height="1000px" viewBox="0 0 1000 1000" version="1.1" xmlns="http://www.w3.org/2000/svg" xmlns:xlink="http://www.w3.org/1999/xlink">
    <title>avatar14</title>
    <g id="页面-1" stroke="none" stroke-width="1" fill="none" fill-rule="evenodd">
        <g id="avatar14" transform="translate(500.491525, 500.000000) scale(-1, 1) translate(-500.491525, -500.000000) translate(81.000000, 0.000000)" fill-rule="nonzero">
            <path d="M340.971752,768.361582 L544.361582,768.361582 L544.361582,898.305085 C544.361582,954.468927 498.824858,1000 442.666667,1000 C386.497176,1000 340.971752,954.468927 340.971752,898.305085 L340.971752,768.361582 L340.971752,768.361582 Z" id="路径" fill="#C5AC95"></path>
            <path d="M43.1129941,552.621469 C43.1129941,602.327684 83.4067793,642.621469 133.112994,642.621469 C182.81356,642.621469 223.107345,602.327684 223.107345,552.621469 C223.107345,502.920903 182.81356,462.627118 133.107345,462.627118 C83.4067793,462.627118 43.1129941,502.920903 43.1129941,552.627118 L43.1129941,552.621469 Z" id="路径" fill="#C9AB90"></path>
            <path d="M56.4971758,313.559322 C56.4971758,390.005516 118.469061,451.977401 194.915255,451.977401 C271.361449,451.977401 333.333334,390.005516 333.333334,313.559322 C333.333334,237.113128 271.361449,175.141243 194.915255,175.141243 C118.469061,175.141243 56.4971758,237.113128 56.4971758,313.559322 Z" id="路径" fill="#4D4132"></path>
            <path d="M406.779661,124.293785 L418.079097,124.293785 C580.333334,124.293785 711.864407,255.824858 711.864407,418.079096 L711.864407,621.468927 C711.864407,783.723164 580.333334,915.254237 418.079097,915.254237 L406.779661,915.254237 C244.525424,915.254237 112.994351,783.723164 112.994351,621.468927 L112.994351,418.079096 C112.994351,255.824858 244.525424,124.293785 406.779661,124.293785 Z" id="路径" fill="#EBD3BD"></path>
            <path d="M0,0 L604.519774,0 C685.649718,0 751.41243,65.7627119 751.41243,146.892655 L751.41243,276.836158 L146.892655,276.836158 C65.7627119,276.836158 0,211.073446 0,129.943503 L0,0 Z" id="路径" fill="#4D4132"></path>
            <path d="M838.983051,138.418079 L838.983051,429.378531 C838.983051,490.225989 789.661017,539.548022 728.81356,539.548022 L663.841809,539.548022 C638.879786,539.548022 618.644068,519.312305 618.644068,494.350282 L618.644068,138.418079 L838.983051,138.418079 Z" id="路径" fill="#4D4132"></path>
            <path d="M237.288136,706.214689 C237.288136,768.621469 287.875706,819.209039 350.282486,819.209039 C412.689267,819.209039 463.276837,768.621469 463.276837,706.214689 L237.288136,706.214689 Z" id="路径" fill="#E89E80"></path>
            <path d="M643.084746,546.971751 C643.084746,596.677966 683.378531,636.971751 733.079097,636.971751 C782.779662,636.971751 823.079097,596.677966 823.079097,546.971751 C823.079097,497.271186 782.779662,456.977401 733.079097,456.977401 C683.378531,456.977401 643.079097,497.271187 643.079097,546.977401 L643.084746,546.971751 Z" id="路径" fill="#EBD3BD"></path>
            <path d="M693.079096,542.621469 C693.074416,564.712859 710.979232,582.625263 733.070622,582.629942 C755.162012,582.634624 773.074416,564.729808 773.079096,542.638418 C773.083777,520.547028 755.178961,502.634624 733.087571,502.629942 C710.996181,502.625263 693.083777,520.530079 693.079096,542.621469 Z" id="路径" fill="#E89E80"></path>
            <path d="M133.107345,462.175142 C132.86582,490.915555 148.060153,517.576744 172.910608,532.017125 C197.761063,546.457505 228.447978,546.457505 253.298432,532.017125 C278.148887,517.576744 293.34322,490.915555 293.101695,462.175142 C293.101695,417.994351 257.282486,382.180791 213.101695,382.180791 C168.920904,382.180791 133.107345,418 133.107345,462.180791 L133.107345,462.175142 Z" id="路径" fill="#FFFFFF"></path>
            <path d="M167.457627,461.525425 C167.457627,480.85539 183.127661,496.525425 202.457627,496.525425 C221.787593,496.525425 237.457627,480.85539 237.457627,461.525425 C237.457627,442.195458 221.787593,426.525425 202.457627,426.525425 C183.127661,426.525425 167.457627,442.195458 167.457627,461.525425 L167.457627,461.525425 Z" id="路径" fill="#514141"></path>
            <path d="M413.096046,462.175142 C413.096046,506.355933 448.915255,542.175142 493.096046,542.175142 C537.276837,542.175142 573.084746,506.355933 573.084746,462.175142 C573.084746,417.994351 537.271187,382.180791 493.090396,382.180791 C448.909604,382.180791 413.090396,418 413.090396,462.180791 L413.096046,462.175142 Z" id="路径" fill="#FFFFFF"></path>
            <path d="M447.446328,461.525426 C447.286121,474.134672 453.921284,485.855263 464.815295,492.206588 C475.709306,498.557914 489.1777,498.557914 500.071712,492.206588 C510.965723,485.855263 517.600886,474.134672 517.440679,461.525426 C517.440679,442.195458 501.770644,426.525426 482.440679,426.525426 C463.110713,426.525426 447.440679,442.195458 447.440679,461.525426 L447.446328,461.525426 Z" id="路径" fill="#514141"></path>
            <path d="M152.542373,310.734463 L276.836158,310.734463 C295.66855,310.734463 305.084746,320.150659 305.084746,338.983051 L305.084746,338.983051 C305.084746,357.815443 295.66855,367.231639 276.836158,367.231639 L152.542373,367.231639 C133.709981,367.231639 124.293785,357.815443 124.293785,338.983051 L124.293785,338.983051 C124.293785,320.150659 133.709981,310.734463 152.542373,310.734463 Z" id="路径" fill="#4D4132"></path>
            <path d="M436.311506,292.040437 L553.833589,332.506536 C571.639965,338.637763 577.47754,350.606565 571.346313,368.41294 L571.346313,368.41294 C565.215085,386.219317 553.246284,392.056891 535.439907,385.925664 L417.917824,345.459566 C400.111448,339.328339 394.273873,327.359537 400.405101,309.553161 L400.405101,309.553161 C406.536328,291.746785 418.50513,285.90921 436.311506,292.040437 L436.311506,292.040437 Z" id="路径" fill="#4D4132"></path>
        </g>
    </g>
</svg>