<?xml version="1.0" encoding="UTF-8"?>
<svg width="1400px" height="378px" viewBox="0 0 1400 378" version="1.1" xmlns="http://www.w3.org/2000/svg" xmlns:xlink="http://www.w3.org/1999/xlink">
    <title>ZHUYE</title>
    <g id="页面-1" stroke="none" stroke-width="1" fill="none" fill-rule="evenodd">
        <g id="ZHUYE" fill="currentColor" fill-rule="nonzero">
            <path d="M274.883525,28.1892753 C273.827592,27.9248197 272.771535,27.792592 271.715353,27.792592 L272.507489,76.2030342 L263.795408,76.2030342 L255.875313,88.900876 L234.887058,111.518876 L215.086821,132.549656 L194.49456,155.961285 L170.338282,183.340948 L150.142052,207.149373 L132.717814,228.576949 L116.481631,249.607728 L97.0773876,273.416153 L93.909215,276.987428 L113.709452,276.987428 L141.825777,276.987428 L169.942139,276.987428 L199.246482,275.003262 L228.550825,273.812837 L256.66715,273.812837 L283.991488,273.812837 L283.991488,322.223279 L256.66715,322.223279 L229.34285,322.223279 L201.622518,323.413704 L175.090167,325.000812 L181.030257,325.000812 C188.15834,324.736357 207.034567,324.868584 237.658938,325.397496 C259.835198,325.661951 276.335389,325.397371 287.159511,324.603754 C287.159511,302.911623 286.631545,285.716649 285.575612,273.018833 C218.518815,273.018833 162.41815,274.07703 117.273618,276.193424 C115.161503,276.193424 113.181473,275.532035 111.333528,274.209258 C109.749504,272.622024 108.957492,270.77026 108.957492,268.653966 C108.957492,266.008585 109.881465,263.760013 111.729409,261.908249 L112.521546,261.114507 C123.081672,246.829457 137.073842,230.163557 154.498056,211.116807 L198.058577,163.499956 L235.679008,119.851177 C253.103221,99.2172179 266.699385,83.6094775 276.467499,73.0279551 L276.467499,72.6312718 C276.467499,67.3405106 276.203454,59.6688994 275.675363,49.6164381 C275.147272,39.5640019 274.883226,32.4214768 274.883226,28.1888629 L274.883525,28.1892753 Z M25.4005416,326.191387 L23.8166424,277.780945 L28.5687142,277.780945 L42.4288612,262.305457 L59.8530621,242.465103 L78.465281,219.450307 L94.7015014,198.419527 L112.917689,176.198323 L133.905944,151.596268 L158.062259,124.216606 L179.446507,100.011347 L196.078684,78.1869759 L167.962359,78.1869759 L141.034052,78.1869759 L110.541691,77.3932343 L79.6532989,75.4090676 L55.8930148,73.0282176 L32.1327306,71.8377926 L34.5087665,23.4273503 L59.0610751,24.6177753 L83.6133463,26.9986253 L112.917689,28.982792 L141.826039,29.7765337 L167.962359,29.7765337 L196.078684,29.7765337 L222.610997,29.7765337 L247.163306,28.1894253 L270.131566,27.7927419 C261.947475,27.5282864 248.351324,27.3960586 229.343112,27.3960586 C210.59887,27.3960586 196.078696,27.131478 185.782591,26.6023169 C171.262405,25.8087002 146.314102,24.3537447 110.937684,22.2374502 C75.8252619,20.1210557 48.7649445,18.6660877 29.7567321,17.872546 C29.228641,21.8406294 28.436629,27.9250072 27.3806962,36.1256795 C26.5886843,44.3263519 25.6647119,51.73342 24.6087791,58.346884 C23.8167671,64.9603229 22.6287492,71.1769661 21.0447252,76.9968134 C27.1168003,76.9968134 50.2170704,78.0550106 90.3455353,80.171405 C120.441915,81.7586384 144.33421,82.1554467 162.022419,81.3618301 C166.246449,81.0973745 168.886481,83.0814162 169.942513,87.3139551 L170.338395,87.3139551 C171.658498,88.9011885 172.318549,90.8852177 172.318549,93.2660427 C172.318549,95.3824372 171.526537,97.2342011 169.942513,98.8213344 C154.894336,112.841854 136.810121,132.417678 115.689868,157.548806 C82.4254655,197.494045 65.13325,218.128016 63.8132217,219.450719 C61.965277,221.567114 54.3091904,231.61955 40.844962,249.608028 C32.9248673,260.454106 25.4007786,268.919334 18.2726958,275.003712 C18.2726958,278.178153 18.2726958,284.130253 18.2726958,292.860012 C18.5366166,301.58977 18.5366166,309.129104 18.2726958,315.478012 C18.2726958,321.82692 18.1407354,328.043564 17.8768146,334.127941 C36.8850269,334.127941 63.4173405,332.805251 97.4737553,330.159871 C132.322157,327.51449 155.950431,325.927269 168.358577,325.398208 L141.825926,325.398208 L113.709601,325.398208 L84.4052585,325.398208 L53.1208731,325.398208 L25.4005416,326.191387 Z M26.1926783,2 C45.9929026,2.79361668 74.1092401,4.24858475 110.541691,6.36490421 L186.574578,10.7297709 C196.870708,11.258932 212.446902,11.5235126 233.303159,11.5235126 C254.159391,11.5235126 269.735572,11.7880931 280.031703,12.3172542 C283.463746,12.5817098 285.83977,14.3012085 287.159773,17.4757501 C289.535809,19.0629835 290.723827,21.3115557 290.723827,24.2214669 C290.723827,29.5122281 290.855787,36.9192962 291.119708,46.4426713 C291.647799,55.9660464 292.043805,62.5794979 292.307726,66.2830257 C292.571647,66.5474813 292.835693,66.6797091 293.099863,66.6797091 C294.683887,68.2669424 295.475899,70.2509841 295.475899,72.6318342 C295.475899,74.7482286 294.815847,76.5999925 293.495744,78.1871259 C282.671622,89.8267955 267.887453,106.757226 249.143236,128.978418 L209.938756,173.817623 L166.378235,221.831269 C153.178077,236.380875 142.353943,248.946439 133.905832,259.527961 C176.410358,257.940728 229.474997,257.147111 293.099751,257.147111 C295.211866,257.147111 297.059885,257.940728 298.643809,259.527961 C300.227833,261.115195 301.019845,262.966959 301.019845,265.083253 L301.019845,266.670362 L301.019845,267.464103 C302.339948,281.749153 303,301.854038 303,327.778758 C303,329.365991 302.603994,330.820959 301.811982,332.143662 C301.811982,333.995351 301.151931,335.71485 299.831827,337.302158 C298.511724,338.889392 296.795703,339.815236 294.683762,340.079692 C280.955588,341.402469 261.815365,341.799278 237.263094,341.270117 C207.166714,340.740955 188.422485,340.608728 181.030407,340.873433 C169.678268,341.137889 142.221945,342.857387 98.6614365,346.031929 C63.2850184,348.67731 35.5646868,350 15.5004419,350 C13.916418,350 12.4643919,349.470964 11.1443636,348.412892 C10.0884308,348.677347 9.16445841,348.809575 8.37244644,348.809575 C5.99641054,348.545119 4.14839094,347.486922 2.82838762,345.634983 C1.50828453,344.04775 0.980318126,342.195986 1.24448842,340.079692 C1.77257954,335.317992 2.16858553,330.02723 2.43250637,324.207408 C2.6964272,318.652091 2.82838762,313.890404 2.82838762,309.922345 C2.82838762,305.954262 2.6964272,300.398958 2.43250637,293.256433 C2.43250637,286.113908 2.43250637,280.955424 2.43250637,277.780982 C2.16858553,277.780982 2.03662511,277.648755 2.03662511,277.384299 C-1.13142276,273.15171 -0.603456355,269.448182 3.62052432,266.273716 C11.2765984,260.453868 19.4606888,251.72411 28.1727955,240.08444 C41.9009697,221.831307 49.8210644,211.514327 51.9330797,209.133502 L103.413695,147.231589 C120.309892,127.126692 135.226072,110.593069 148.162234,97.630722 C133.114057,97.8951775 113.445818,97.3661414 89.1575174,96.0436136 C50.3490557,93.9272191 26.3247759,92.8690219 17.0846779,92.8690219 C15.7645748,92.8690219 14.444559,92.4722136 13.1246305,91.6785969 C13.1246305,91.9430525 12.464579,92.0752802 11.1444759,92.0752802 C9.82437276,91.8108247 9.03236079,91.6785969 8.76843995,91.6785969 C6.65632489,91.1494358 5.07230096,89.9590108 4.01636816,88.1073218 C2.96043535,85.9909274 2.82847493,83.8746329 3.6204869,81.7584384 C5.46843167,75.1449745 6.92044529,68.1347147 7.97652777,60.727659 C9.29663086,53.3205784 10.4846488,44.7230852 11.5405816,34.9351795 C12.5965144,25.1472739 13.5204868,17.6079404 14.3124988,12.3171793 C14.8405899,9.67179867 16.2926035,7.68776948 18.6685396,6.36509168 C20.2525636,3.45515554 22.7605973,2 26.1926409,2 L26.1926783,2 Z" id="path5134"></path>
            <path d="M389.186112,15.3094574 C389.450851,15.573716 389.583221,15.9702288 389.583221,16.4989958 C391.966622,32.3594574 392.231486,54.696278 390.377813,83.5094574 C388.52414,111.265253 387.994537,130.297804 388.789004,140.607112 C410.769169,137.699368 438.443011,134.791612 471.81053,131.883843 C472.869736,107.035791 474.326263,70.9532524 476.180111,23.636226 C476.180111,21.5214079 476.974579,19.8031899 478.563513,18.4815722 C480.417186,16.8955211 482.403354,16.1024955 484.522016,16.1024955 L484.919125,16.1024955 C485.978331,15.5737285 487.170031,15.309345 488.494227,15.309345 C522.656187,15.309345 547.549407,17.291909 563.173885,21.2570369 C565.292548,21.7858038 566.881482,22.9753422 567.940688,24.825652 C568.999977,26.6759617 569.264758,28.6585257 568.73528,30.7733438 C568.470541,32.0951364 567.808443,33.2846747 566.748987,34.3419589 C566.748987,40.6861386 566.881357,50.2024081 567.146096,62.8907674 C567.410835,75.3147932 567.410835,86.5492931 567.146096,96.5942671 C567.146096,106.374883 567.013726,115.758985 566.748987,124.746575 C566.484248,132.412473 565.557412,149.198126 563.968477,175.103537 C562.644282,201.008948 561.849815,220.041499 561.585076,232.201192 C561.320337,244.09655 561.452707,260.089179 561.982184,280.179077 C562.776652,300.004666 564.497993,317.847692 567.146208,333.708153 C567.410947,336.08723 566.74885,338.201961 565.159915,340.052346 C563.83572,343.224423 561.452319,344.810462 558.009711,344.810462 C549.270598,344.810462 536.161941,344.942591 518.683739,345.20685 C501.470327,345.735617 488.494064,346 479.754951,346 C477.636288,346 475.78254,345.206974 474.193706,343.620923 C472.604772,342.034872 471.810305,340.184487 471.810305,338.069769 C471.810305,337.276744 471.942674,336.483718 472.207413,335.690692 C471.677685,334.633408 471.412821,333.575999 471.412821,332.518465 C471.412821,319.830106 471.015587,301.59058 470.22112,277.799888 C469.691392,253.744837 469.426528,236.298324 469.426528,225.460349 C447.181524,227.839426 421.229023,230.879349 391.569026,234.580118 C391.569026,261.807247 394.482055,294.453362 400.308114,332.518465 C400.572853,334.633283 400.04325,336.615835 398.719305,338.46612 C397.39511,340.316429 395.673768,341.373838 393.555281,341.638347 C391.966347,341.902605 390.509832,341.638222 389.185737,340.845196 C388.126531,341.373963 387.0672,341.638347 386.007744,341.638347 C356.347721,341.638347 333.308238,342.03486 316.889292,342.827885 C314.77063,342.827885 312.784475,342.03486 310.930826,340.448808 C309.341892,339.127016 308.547425,337.408798 308.547425,335.294155 C308.547425,334.23687 308.679795,333.179461 308.944534,332.121927 C308.150066,330.800135 307.620463,329.47843 307.355724,328.156812 C303.383414,298.286273 301.264839,264.186273 301,225.856812 C301,187.527376 301.926837,153.559555 303.78051,123.95335 C304.045249,117.873504 303.515646,99.8983239 302.191701,70.0278103 C301.397234,46.7657849 302.32407,27.997567 304.97221,13.7231565 C305.501939,11.6083384 306.56127,10.0222872 308.150204,8.96500301 C310.003877,7.64321045 311.990033,7.11456836 314.10867,7.37907674 C315.432865,5.79302558 317.286613,5 319.669915,5 L381.638162,5 C383.756824,5 385.610573,5.79302558 387.199407,7.37907674 C388.788341,8.9651279 389.582808,10.8155126 389.582808,12.9302308 C389.582808,13.7232564 389.450439,14.516282 389.1857,15.3093076 L389.186112,15.3094574 Z M496.041614,38.3071493 L544.503933,38.3071493 L544.503933,64.8734187 L542.51764,87.4745728 L542.51764,116.023381 L541.325939,148.537343 L540.928831,171.138497 L540.134239,194.136151 L540.134239,221.495459 L538.942538,248.458228 L538.147946,271.852421 L538.147946,300.004729 L537.750837,323.795421 L489.288481,323.002271 L489.685589,299.211578 L489.685589,271.05927 L490.480182,246.87204 L491.671882,220.702271 L491.671882,204.841809 L471.810267,204.841809 L447.579108,206.031347 L420.170067,208.014036 L393.158285,209.203575 L372.104969,213.961691 L372.104969,240.924535 L372.502078,270.662882 L373.29667,297.229152 L373.693779,322.209382 L325.23146,323.002533 L324.834351,298.022302 L324.039759,271.456033 L323.642651,240.924648 L323.642651,210.789763 L322.848058,175.896763 L322.848058,142.986301 L322.848058,115.626993 L322.848058,89.0607239 L322.848058,56.5467626 L322.45095,27.9979541 L370.913269,27.2048036 L371.310377,56.5466502 L371.310377,89.0606115 L371.310377,115.626881 L371.310377,142.986189 L371.310377,164.794305 L386.802448,161.622077 L416.992111,159.639389 L444.401152,157.6567 L471.015712,156.467161 L492.86347,156.467161 L492.86347,146.950892 L494.055171,115.229969 L494.055171,85.095084 L496.041464,62.4939299 L496.041614,38.3071493 Z M373.29682,149.330381 C372.237614,137.435022 372.634848,115.098201 374.488521,82.319919 C376.077455,55.6214828 375.945086,35.1350469 374.091412,20.8606115 L320.067811,20.8606115 C317.949149,33.0203037 317.287051,49.1451114 318.081518,69.2350345 C319.405714,101.220291 319.935317,119.724163 319.670328,124.74665 C317.816654,154.617189 316.889818,188.320663 316.889818,225.857074 C317.154557,263.39351 319.273131,296.700485 323.245542,325.777998 L323.245542,326.571148 C338.340367,326.042381 358.33439,325.777998 383.227609,325.777998 C378.196017,290.884972 375.680222,260.221408 375.680222,233.787305 L375.680222,232.201379 C375.150493,231.144095 374.75326,230.086686 374.488521,229.029152 C374.223782,226.650075 374.753385,224.667511 376.07733,223.08146 C377.401525,221.23115 379.122867,220.173741 381.241354,219.909233 C420.69977,214.886746 451.683888,211.318143 474.193706,209.203425 L476.179999,209.203425 L477.371699,209.203425 C479.490362,209.203425 481.344123,209.99645 482.932982,211.582502 C484.521916,213.168553 485.316383,215.018937 485.316383,217.133656 C485.316383,229.822015 485.581247,248.854566 486.110975,274.23131 C486.905443,299.343695 487.302676,317.979734 487.302676,330.139426 C494.188041,330.139426 504.648496,329.875042 518.68404,329.346276 C532.719558,329.082017 543.31242,328.949888 550.462624,328.949888 C548.079223,313.089426 546.622695,295.37858 546.093042,275.817349 C545.563314,255.991784 545.430945,239.999156 545.695934,227.839463 C546.225662,215.415438 547.152499,196.911566 548.476444,172.327848 C549.800639,147.74413 550.595106,131.619322 550.859845,123.953425 C551.124584,115.230168 551.256954,105.978232 551.256954,96.1976169 C551.521692,86.4170014 551.521692,75.3146808 551.256954,62.890655 C550.992215,50.2022957 550.859845,40.8181929 550.859845,34.7383468 C538.148396,32.3592701 518.419188,31.1697317 491.67222,31.1697317 C490.083286,75.8433728 488.626771,110.339873 487.302676,134.659233 C488.097143,135.716517 488.626746,136.906055 488.891485,138.227848 C489.156224,140.606924 488.494127,142.589488 486.905192,144.17554 C485.580997,145.761591 483.859656,146.686746 481.741169,146.951004 C440.429004,150.38744 407.458719,153.956043 382.830313,157.656812 C380.711651,157.921071 378.857902,157.524558 377.269068,156.467274 C375.680134,155.145481 374.620803,153.55943 374.091075,151.70912 C373.561347,150.916095 373.296482,150.123069 373.296482,149.330043 L373.29682,149.330381 Z" id="path5136"></path>
            <path d="M601.228627,22.8547707 L599.23981,31.1629016 L647.365987,35.1190708 L644.979557,62.4166491 L644.183955,90.5054389 L644.183955,115.429308 L644.183955,140.748783 L644.183955,166.068258 L646.172772,194.552691 L650.945632,220.663415 L656.513943,241.235472 L665.264174,259.829464 L676.798561,276.445389 L692.708045,290.687605 L711.003921,298.599944 L728.504345,300.182292 L747.595748,297.413089 L761.118801,288.709502 L772.255425,276.049783 L778.2215,256.664543 L785.778516,230.553819 L787.767333,208.794908 L789.756149,185.057893 L790.949364,158.947169 L792.14258,135.60576 L792.14258,111.868745 L792.14258,87.7361242 L792.14258,59.6473345 L791.346978,35.1190708 L839.87088,33.5367227 L840.666482,58.8561978 L840.666482,87.7362364 L840.666482,111.868857 L840.666482,136.397121 L839.473267,161.32099 L838.280052,188.222925 L836.291235,212.751189 L833.507191,239.257519 L824.359235,270.906872 L814.415789,299.78691 L792.937994,325.106386 L764.300908,342.513522 L730.095549,348.447757 L699.072034,345.282687 L666.457615,331.040471 L640.20696,308.094705 L623.104261,283.566441 L611.172149,257.85136 L604.012896,231.740637 L597.649095,200.882532 L595.660278,167.650719 L595.660278,140.748746 L595.660278,115.429271 L595.660278,89.7141527 L596.45588,60.0429028 L598.84231,32.7453244 C593.273998,55.4273659 589.694366,77.8456578 588.103413,100.0002 C586.512459,122.154742 586.644997,143.518061 588.501026,164.090155 C590.357054,184.398488 593.804112,207.344266 598.842197,232.927491 C604.940835,264.049345 612.762989,286.599505 622.308659,300.577972 C636.627214,320.886305 654.657965,335.919745 676.400911,345.678293 C698.409032,355.700603 721.875519,359.656772 746.800371,357.546801 C757.93702,356.491902 767.350139,354.909442 775.039731,352.79942 C782.729297,350.689373 789.490824,346.996941 795.324311,341.722124 C805.400307,332.491075 813.885362,321.809422 820.779477,309.677165 C827.673591,297.544908 832.579014,285.017045 835.495745,272.093577 C838.677652,259.170083 841.06407,245.455354 842.654998,230.949388 C844.511027,216.17971 845.306503,201.673756 845.041428,187.431527 L844.245826,144.309309 L844.245826,135.605722 L844.245826,81.8018144 C844.510901,60.9660077 843.980625,43.9544891 842.654998,30.7672585 C828.601643,28.9211235 811.233794,28.3936742 790.551451,29.1849105 C790.286375,76.1314411 787.104481,136.133334 781.005768,209.190588 C780.740693,212.355534 780.608155,216.707321 780.608155,222.24595 C780.34308,228.048317 780.077879,232.400104 779.812553,235.301312 C779.017077,247.169807 776.89581,256.664606 773.448752,263.785708 C771.327398,268.005626 768.278079,272.357414 764.300796,276.84107 C760.588588,281.060988 756.743805,284.357802 752.766446,286.731511 C736.856963,296.226297 719.223951,295.039443 699.86741,283.170948 C691.912668,278.423555 684.885978,272.489307 678.787341,265.368205 C672.953853,257.983341 668.711319,250.466609 666.059739,242.818007 C646.703223,185.057955 642.062963,114.242541 652.13896,30.371765 C648.426752,29.0529547 644.184218,27.9979314 639.411358,27.2066951 C634.903673,26.1517964 631.191465,25.4923913 628.274734,25.2284797 C625.623154,24.9648173 620.850306,24.5691992 613.956192,24.0416252 C607.327253,23.5140513 603.084731,23.1184331 601.228627,22.8547707 L601.228627,22.8547707 Z M601.626241,7.03028102 C603.217194,7.29394339 607.592303,7.68956155 614.751568,8.2171355 C621.910833,8.74470945 627.213994,9.2721588 630.661052,9.79948354 C634.108109,10.0631459 638.748369,10.8543822 644.581831,12.1731925 C650.415318,13.2280912 655.453329,14.5468143 659.695863,16.1293617 C661.817217,16.920598 663.275583,18.239321 664.070959,20.0855308 C667.518017,21.6680035 668.976382,24.3054496 668.446056,27.9978691 C657.839734,111.341146 662.082268,181.365336 681.173658,238.07044 C683.029687,243.609069 686.344156,249.27958 691.117066,255.081971 C696.155077,260.884337 701.855976,265.763611 708.219765,269.719793 C722.007994,278.159606 734.205269,279.34646 744.811592,273.280357 C750.645054,269.587912 755.417902,264.04927 759.130134,256.664431 C761.781715,251.389539 763.372656,243.872819 763.902957,234.114271 C764.168032,231.476825 764.433233,227.125037 764.698559,221.058909 C764.698559,215.256517 764.831097,210.772862 765.096172,207.607941 C771.45996,133.495713 774.641855,72.8344528 774.641855,25.6241602 C774.641855,24.5692615 774.774392,23.6461939 775.039468,22.8549576 L775.039468,22.0635967 C775.039468,19.9535501 775.702407,18.1073403 777.028285,16.5249674 C778.619238,14.6788323 780.475342,13.7557648 782.596596,13.7557648 C810.968506,12.4369546 834.037255,13.0963597 851.802842,15.7339802 C853.924197,15.9976426 855.647725,17.0526659 856.973428,18.8990501 C858.299306,20.7451852 858.829582,22.7232635 858.564256,24.8332852 C858.564256,25.3608591 858.431718,25.7564773 858.166643,26.0201397 C858.431718,26.5477136 858.564256,27.075163 858.564256,27.6024877 C859.890134,41.8447166 860.42041,60.0431022 860.155084,82.1976444 L860.155084,135.605909 C860.155084,137.715956 860.287622,141.276507 860.552697,146.287562 C860.552697,160.529791 860.685235,174.772008 860.95031,189.014212 C861.215385,203.256415 860.419909,218.157987 858.56388,233.718927 C856.707851,249.016104 854.056271,263.653926 850.609138,277.632393 C847.162106,291.347098 841.593794,304.798065 833.904203,317.985296 C826.479788,331.436289 817.06668,343.304796 805.664881,353.590818 C798.240441,360.448183 789.887961,365.195589 780.607441,367.833035 C771.326897,370.470481 760.587986,372.316691 748.390711,373.371664 C720.549127,375.745373 694.298484,371.393586 669.638783,360.316302 C645.244256,349.239043 625.224827,332.227525 609.580494,309.281746 C598.443845,293.45707 589.561052,269.060687 582.932113,236.092598 C574.977371,199.168353 571,162.771607 571,126.90236 C571,91.0330876 576.170586,54.5044604 586.511758,17.3164778 C587.57231,13.6240333 589.958727,11.6459425 593.67101,11.3822054 C595.261964,8.21728503 597.913544,6.76669341 601.625752,7.03043054 L601.626241,7.03028102 Z" id="path5138"></path>
            <path d="M925.972712,16.7438515 C909.861626,22.5588524 894.27877,31.4134964 879.224144,43.3077835 C895.071121,69.7395605 913.427207,105.951092 934.292401,151.942379 C936.141138,155.642823 938.650234,161.722134 941.819689,170.180313 C945.517337,178.902802 948.818797,186.171534 951.724069,191.98651 C954.629341,197.537201 957.798734,202.559246 961.232248,207.052646 C963.873411,210.753089 963.609252,214.189223 960.439772,217.361046 C961.496157,242.471222 960.439647,288.858986 957.270241,356.52434 C962.288458,356.788576 971.532529,357.185054 985.002452,357.713774 C998.472375,358.50673 1008.90497,359.167568 1016.30024,359.696289 C1017.35663,349.123578 1018.14898,337.097123 1018.6773,323.616924 C1019.20561,310.401036 1019.46977,299.96048 1019.46977,292.295257 C1019.73381,284.365724 1019.73381,271.546314 1019.46977,253.837026 C1019.46977,236.127738 1019.46977,225.026394 1019.46977,220.532994 C1017.88507,217.361171 1018.14923,214.45367 1020.26225,211.810493 L1040.8633,187.228963 L1062.25671,160.665031 L1081.66927,135.686998 C1090.121,124.585641 1096.72391,115.334519 1101.47799,107.933632 C1106.49621,100.268409 1111.91059,91.413765 1117.72113,81.3696997 C1123.5317,71.3256344 1128.54992,61.6780346 1132.77578,52.4269002 C1130.13462,50.3122681 1127.3614,48.3298911 1124.45613,46.4797691 C1121.81497,44.365137 1118.64556,42.2505924 1114.94791,40.1361351 L1105.8359,34.9819349 C1103.72288,33.6602586 1100.28938,31.6778691 1095.53539,29.0347663 L1086.02718,24.277069 C1070.44433,49.9158901 1043.90065,87.8454888 1006.39613,138.065865 C1005.60377,139.123056 1004.54726,139.916012 1003.2266,140.444732 L1000.84954,142.030519 C999.000805,142.823475 997.019939,142.823475 994.906944,142.030519 C993.058207,140.973328 991.605559,139.387416 990.548999,137.272784 C969.419696,84.1449201 947.894217,43.9686217 925.972562,16.7438515 L925.972712,16.7438515 Z M931.915347,2.47068441 C934.028367,2.73491976 935.877179,3.65999324 937.461782,5.24590486 C959.119327,32.2063273 980.116576,70.2680936 1000.45353,119.431204 C1035.84511,72.3826258 1061.33233,35.3781381 1076.9152,8.41774057 C1077.97158,6.5675936 1079.55627,5.37815989 1081.66927,4.84943944 C1083.78229,4.32071899 1085.76317,4.58507921 1087.6119,5.64252012 C1088.93257,6.43547593 1089.98908,7.36054941 1090.78143,8.41774057 C1092.63017,9.73941683 1096.85604,12.1182718 1103.45903,15.5543054 L1118.51364,23.4838384 C1121.68305,25.3339854 1125.77685,27.9771631 1130.79504,31.4133715 C1135.81326,34.5851948 1140.30323,37.7570055 1144.26496,40.9288037 C1144.79328,41.1930391 1145.45362,41.4573993 1146.24597,41.7218844 C1148.0947,42.5148402 1149.41528,43.9685842 1150.20771,46.0831164 C1151.2641,47.9332633 1151.2641,49.9156529 1150.20771,52.0302849 C1145.98185,62.0743502 1140.69952,72.647061 1134.36073,83.7484173 L1118.51376,110.708815 C1114.28789,117.845392 1107.28881,127.88947 1097.51651,140.841048 L1078.50015,166.215546 C1075.59485,169.91599 1067.80342,179.299267 1055.12585,194.365378 C1042.71238,209.431488 1036.10948,217.625344 1035.31713,218.946945 L1035.31713,220.532732 C1035.31713,223.44022 1035.31713,235.202364 1035.31713,255.819165 C1035.58116,276.171631 1035.58116,290.180463 1035.31713,297.845661 C1035.31713,305.246573 1034.92095,316.34793 1034.1286,331.14973 C1033.33625,345.687194 1032.27974,358.903083 1030.95907,370.797395 C1030.69503,373.176263 1029.63852,375.026484 1027.78954,376.348061 C1026.20483,377.669737 1024.35602,378.198333 1022.2431,377.933847 C1020.39437,377.669612 1018.94173,377.008774 1017.8852,375.951333 C1009.43346,375.158377 997.416177,374.365421 981.833333,373.572466 C966.514574,372.77951 955.157571,372.118672 947.762325,371.589951 C945.649304,371.325716 943.800493,370.400642 942.21589,368.814731 C940.895221,367.228819 940.367029,365.246442 940.631312,362.8676 C940.631312,361.810409 940.895471,360.753093 941.423788,359.695652 L941.423788,357.713137 C941.687822,354.012693 942.083998,344.893727 942.612315,330.356237 L944.196893,299.431073 C944.460927,293.351762 944.725086,284.629273 944.989369,273.263606 C945.253403,261.633629 945.38542,251.193074 945.38542,241.941939 C945.38542,232.69083 945.121261,223.439708 944.592944,214.188573 C944.592944,213.131382 944.724961,212.206309 944.988995,211.413353 C941.819589,206.655643 938.782251,201.237133 935.876979,195.157821 C932.971708,189.07851 929.802315,182.206243 926.3688,174.54102 C923.199395,166.611487 921.086462,161.192977 920.030002,158.285489 C899.957159,113.880114 880.676667,76.3469927 862.188527,45.6861265 C860.603824,43.0429488 860.603824,40.3997711 862.188527,37.7565934 C862.716844,36.6994022 863.377179,35.7743288 864.16953,34.981373 C883.185888,19.1223068 902.99461,7.62448506 923.595695,0.487907782 C927.029185,-0.569283377 929.802402,0.0915547534 931.915347,2.47042217 L931.915347,2.47068441 Z M883.185888,42.9113181 L926.765076,22.2945171 L937.461782,44.8936827 L948.158488,66.6999174 L960.439884,87.7131838 L971.928954,111.501783 L984.21035,137.272747 L995.303257,162.25078 L996.095733,163.440214 L997.680311,161.061346 L1013.13109,137.669212 L1029.37427,115.070047 L1044.82504,91.6779504 L1059.87969,71.0611493 L1074.14194,50.4443858 L1086.81954,29.8275848 L1128.02167,55.2020832 L1114.55175,76.611815 L1099.49714,98.8145151 L1084.44249,119.431316 L1068.99171,142.823413 L1052.74853,165.422578 L1037.29775,188.814712 L1021.05458,210.620947 L1015.9043,217.361046 L1015.9043,220.532994 L1015.11183,250.268762 L1014.71578,279.211524 L1013.52725,307.361393 L1011.54625,331.546457 L1010.35772,355.731522 L962.024462,353.352655 L963.212989,328.374659 L965.193992,304.189557 L966.382519,277.625625 L966.77857,249.475794 L967.571046,219.740026 L967.571046,213.792895 L964.005465,207.052795 L951.724069,182.867731 L940.631162,157.889698 L928.349766,132.911665 L917.65306,110.708965 L905.371664,89.6956982 L893.882594,65.5106335 L883.185888,42.9113181 Z" id="path5140"></path>
            <path d="M1391.99084,15.4455489 C1392.25596,15.9737017 1392.38851,16.6338302 1392.38851,17.4259346 C1393.7116,30.8916592 1394.37314,54.6547157 1394.37314,88.7151043 C1394.37314,90.8274658 1393.57904,92.675701 1391.99084,94.25981 C1390.40264,95.8440187 1388.5497,96.6361231 1386.43201,96.6361231 L1385.23899,96.6361231 L1383.25436,96.6361231 C1366.57818,95.0519144 1342.35814,94.25981 1310.59423,94.25981 C1304.24145,94.25981 1293.52114,94.5238864 1278.43328,95.0520391 C1263.61012,95.3159907 1252.22805,95.4479666 1244.28707,95.4479666 C1244.55169,109.177743 1244.55169,118.68297 1244.28707,123.963649 C1269.16882,123.963649 1288.49187,124.623778 1302.25621,125.944035 C1304.3739,126.207987 1306.22679,127.132067 1307.81489,128.716276 C1310.99129,130.300484 1312.57949,132.808811 1312.57949,136.241255 C1312.57949,157.363972 1313.10885,178.882741 1314.16757,200.797562 C1316.81456,202.381771 1318.13806,204.758072 1318.13806,207.926464 C1318.13806,210.038826 1317.34396,211.887061 1315.75575,213.47117 C1314.16755,215.055379 1312.31466,215.847483 1310.19708,215.847483 C1301.99141,215.847483 1290.7417,216.507612 1276.44794,217.827869 C1261.62478,218.883925 1252.0956,219.544053 1247.86041,219.808254 C1247.86041,233.009952 1247.59567,242.911232 1247.06619,249.512094 C1255.80126,249.512094 1268.37448,249.77617 1284.78585,250.304323 C1301.19721,250.832476 1310.99108,251.096552 1314.16745,251.096552 C1343.01968,251.624705 1366.84267,251.096677 1385.63644,249.512468 C1388.54797,249.248516 1390.93015,250.172597 1392.78296,252.284709 C1394.63628,253.604966 1395.82806,255.321188 1396.35829,257.433375 C1398.73934,266.146473 1399.79856,277.631949 1399.53594,291.889803 C1399.27082,308.52392 1399.40338,319.085278 1399.93362,323.573878 C1400.19873,325.422039 1399.66975,327.138248 1398.34667,328.722507 C1397.2887,330.570667 1395.83281,331.626848 1393.97899,331.891049 C1392.65591,333.475258 1390.9354,334.399338 1388.81746,334.66329 C1379.55313,335.455394 1369.75927,336.115523 1359.43589,336.643675 L1333.23066,338.624061 C1325.5544,339.152214 1315.36348,339.548266 1302.6579,339.812218 C1290.21704,340.076169 1281.34962,340.208145 1276.05563,340.208145 C1270.76165,340.472097 1260.70309,340.604073 1245.87995,340.604073 C1231.05679,340.868024 1222.18935,341 1219.27764,341 L1189.499,341 L1161.70558,341 C1157.99979,341 1155.48515,339.283778 1154.16164,335.851334 C1150.72055,334.531077 1149,332.02275 1149,328.326355 C1149,312.484317 1149.26474,295.982201 1149.79423,278.820006 C1150.32371,261.657786 1151.11781,241.723213 1152.17653,219.016287 C1152.70601,199.74183 1153.23537,183.239714 1153.7646,169.509938 C1155.61742,104.293552 1154.55858,51.8828119 1150.58808,12.2777177 C1150.32346,10.1653562 1150.85282,8.31712094 1152.17615,6.73301197 C1153.76435,4.88485158 1155.61724,3.82867082 1157.73483,3.56446971 L1159.7202,3.56446971 C1161.3084,1.4521082 1163.42599,0.395927449 1166.07295,0.395927449 C1174.27865,0.395927449 1187.64597,0.395927449 1206.17492,0.395927449 C1224.70386,0.131975816 1240.85051,0 1254.61485,0 C1267.32043,0 1280.8201,0.264076374 1295.11385,0.792229121 C1303.58421,1.05618075 1318.53972,2.11236151 1339.98038,3.96077138 C1358.5094,5.28102851 1373.20018,5.94115707 1384.05271,5.94115707 C1386.17115,5.94115707 1388.02409,6.73326145 1389.61154,8.31747021 C1391.19974,9.90167897 1391.99384,11.7499142 1391.99384,13.8621759 L1391.99084,15.4455489 Z M1177.58438,24.1586846 L1226.02436,26.5349978 L1226.02436,28.1190818 L1245.8768,27.7231543 L1272.47907,26.5349978 L1298.68426,26.5349978 L1325.68361,26.5349978 L1350.30061,26.5349978 L1374.91781,27.3272269 L1373.33086,75.6454568 L1349.50804,74.8532277 L1325.68511,74.8532277 L1298.68576,74.8532277 L1273.27464,74.8532277 L1247.46649,76.0413843 L1225.62878,76.4373117 L1226.02571,81.1899006 L1226.81993,105.745074 L1227.21686,133.072563 L1227.21686,149.310678 L1242.30474,148.122521 L1270.09816,147.330292 L1294.31813,146.934365 L1295.11235,195.252557 L1270.89234,195.648485 L1244.68715,196.440714 L1227.21697,197.62887 L1227.21697,214.263025 L1226.82005,242.38263 L1225.23197,267.333844 L1225.23197,270.502386 L1251.04013,269.710157 L1277.64243,268.522 L1303.84763,268.522 L1330.84697,268.522 L1355.46398,268.522 L1380.08106,269.314229 L1378.49411,317.632422 L1354.67103,316.840193 L1330.84525,316.840193 L1303.8459,316.840193 L1278.43478,316.840193 L1252.62663,318.028349 L1223.24498,318.820578 L1222.84806,318.820578 L1222.84806,320.008735 L1198.62809,318.820578 L1197.43694,318.820578 L1174.40812,317.632422 L1175.59927,293.077248 L1176.79042,264.957643 L1178.37849,240.798546 L1178.77542,214.263137 L1178.77542,186.935611 L1178.77542,159.608122 L1178.77542,133.072675 L1178.37849,106.537266 L1177.58427,82.7742092 L1176.39312,51.4862109 L1177.58438,24.1586846 Z M1236.74467,79.6058166 C1246.00913,79.6058166 1259.11174,79.4738408 1276.05248,79.2098891 C1293.25795,78.6817364 1304.64002,78.41766 1310.19869,78.41766 C1340.10971,78.41766 1362.8739,79.0777886 1378.49126,80.3980457 C1378.49126,54.258676 1377.96228,34.7201554 1376.90431,21.7824838 C1367.11049,21.5185321 1354.40496,20.7264277 1338.78772,19.4061706 C1317.61179,17.8219619 1302.78862,16.8978817 1294.31824,16.63393 C1280.28918,16.1057773 1267.05421,15.8417009 1254.61335,15.8417009 C1241.1137,15.8417009 1225.0994,15.9736767 1206.57045,16.2376284 C1188.04151,16.2376284 1174.80654,16.2376284 1166.86557,16.2376284 C1170.57135,55.0506182 1171.49776,106.405228 1169.64479,170.301456 C1169.11531,184.031207 1168.58595,200.137271 1168.05672,218.619649 C1166.998,240.270444 1166.2039,259.544925 1165.67442,276.443094 C1165.14493,293.341262 1164.88019,309.579352 1164.88019,325.157364 L1219.67296,325.157364 C1238.996,325.157364 1257.26024,325.025388 1274.46568,324.761436 C1291.67115,324.497484 1309.80304,323.837356 1328.86137,322.78105 C1348.18442,321.988946 1366.44869,320.800789 1383.65417,319.216581 C1383.38906,315.784137 1383.38906,306.542948 1383.65417,291.493015 C1383.65417,280.66763 1383.12519,272.086532 1382.06722,265.749722 C1363.80287,267.069979 1341.03868,267.466031 1313.77466,266.937879 C1308.21598,266.673927 1300.53969,266.409851 1290.7458,266.14565 C1280.95193,265.881698 1271.95216,265.749722 1263.74649,265.749722 C1255.80552,265.485771 1248.26159,265.353795 1241.11471,265.353795 C1238.99703,265.353795 1237.14414,264.56169 1235.55604,262.977482 C1233.96783,261.393273 1233.17373,259.545038 1233.17373,257.432776 L1233.17373,256.244619 C1231.58553,254.396459 1230.92374,252.284185 1231.18836,249.907797 C1231.71784,244.09904 1231.98258,232.085498 1231.98258,213.867172 C1231.98258,211.754811 1232.77668,209.906563 1234.36489,208.322429 C1235.68847,205.682089 1237.80607,204.36192 1240.71767,204.36192 C1246.54104,204.097968 1257.9231,203.305864 1274.86385,201.985606 C1285.98122,201.193502 1293.78986,200.665474 1298.28974,200.401522 C1297.23102,180.334961 1296.70166,160.66444 1296.70166,141.389958 C1283.99611,140.333902 1265.07011,139.805874 1239.92367,139.805874 C1238.86496,139.805874 1237.93855,139.673898 1237.14445,139.409947 L1234.36522,139.409947 C1232.24754,139.145995 1230.52699,138.221915 1229.20358,136.637706 C1227.88,134.789546 1227.35064,132.677272 1227.61551,130.300884 C1228.14499,126.340387 1228.40973,122.247864 1228.40973,118.023316 C1228.67435,113.534741 1228.67435,108.122048 1228.40973,101.785238 C1228.40973,95.1843767 1228.40973,90.5637761 1228.40973,87.9234365 C1228.40973,85.5471233 1229.20383,83.5668749 1230.79203,81.9826911 C1232.38023,80.3984823 1234.36549,79.6063779 1236.74779,79.6063779 L1236.74467,79.6058166 Z" id="path5142"></path>
        </g>
    </g>
</svg>
