<?xml version="1.0" encoding="UTF-8"?>
<svg width="204px" height="204px" viewBox="0 0 204 204" version="1.1" xmlns="http://www.w3.org/2000/svg" xmlns:xlink="http://www.w3.org/1999/xlink">
    <title>juejin</title>
    <g id="页面-1" stroke="none" stroke-width="1" fill="none" fill-rule="evenodd">
        <g id="juejin" transform="translate(0.612499, 0.612499)" fill="#006CFF" fill-rule="nonzero">
            <path d="M101.387501,0 C45.6243753,0 0,45.6243753 0,101.387501 C0,157.150626 45.6243753,202.775002 101.387501,202.775002 C157.150626,202.775002 202.775002,157.150626 202.775002,101.387501 C202.775002,45.6243753 157.150626,0 101.387501,0 Z M85.1655006,46.6382504 L101.387501,33.4578753 L117.102563,45.6243753 L118.623376,46.6382504 L101.387501,60.8325005 L84.1516256,47.1451879 L85.1655006,46.6382504 Z M60.8325005,65.9018755 L101.387501,97.8389382 L141.942501,65.9018755 L153.095126,74.5198131 L101.894438,115.074813 L50.6937504,74.5198131 L60.8325005,65.9018755 Z M101.387501,169.317126 L16.2220001,101.894438 L27.3746252,93.2765007 L101.387501,151.574314 L175.400376,93.2765007 L186.553001,101.894438 L101.387501,169.317126 L101.387501,169.317126 Z" id="形状"></path>
        </g>
    </g>
</svg>