<?xml version="1.0" standalone="no"?><!DOCTYPE svg PUBLIC "-//W3C//DTD SVG 1.1//EN" "http://www.w3.org/Graphics/SVG/1.1/DTD/svg11.dtd"><svg t="1636887811652" class="icon" viewBox="0 0 1024 1024" version="1.1" xmlns="http://www.w3.org/2000/svg" p-id="2155" xmlns:xlink="http://www.w3.org/1999/xlink" width="280" height="280"><defs><style type="text/css"></style></defs><path d="M512 512m-512 0a512 512 0 1 0 1024 0 512 512 0 1 0-1024 0Z" fill="#5BD171" p-id="2156"></path><path d="M765.240889 442.112s8.334222-12.743111 13.084444-25.514667c6.200889-16.128 7.395556-36.579556 7.395556-36.579555l40.903111-41.642667-51.854222-5.774222c-11.918222-29.383111-26.424889-43.093333-40.675556-52.48-28.785778-19.029333-70.656-26.737778-132.522666-23.352889-62.065778 3.356444-103.708444 24.803556-115.598223 30.805333 19.968 5.774222 28.785778 7.708444 41.614223 17.578667 12.856889 9.870222 33.080889 38.968889 16.668444 77.027556-16.668444 38.030222-330.183111 367.075556-350.890667 388.494222-10.951111 11.093333 102.542222 27.932444 189.610667 27.932444 77.539556 0 128.910222-27.192889 167.708444-60.672 31.402667 8.448 110.592 22.385778 178.176-39.224889 84.679111-77.255111 68.010667-166.570667 64.682667-184.604444-6.172444-33.479111-21.617778-59.960889-28.302222-71.964445z" fill="#FAFBFC" p-id="2157"></path><path d="M764.416 442.396444c5.404444-6.599111 9.159111-13.027556 13.937778-25.799111 6.172444-16.128 7.338667-36.579556 7.338666-36.579555l40.931556-41.642667-51.854222-5.774222c-11.918222-29.383111-26.424889-43.093333-40.675556-52.48-28.785778-19.029333-70.656-26.737778-132.522666-23.352889-62.065778 3.356444-103.708444 24.803556-115.598223 30.805333 19.968 5.774222 28.785778 7.708444 41.614223 17.578667 12.856889 9.870222 33.080889 38.968889 16.668444 77.027556-16.668444 38.030222-330.183111 367.075556-350.890667 388.494222-10.951111 11.093333 102.542222 27.932444 189.610667 27.932444 77.539556 0 128.910222-27.192889 167.708444-60.672 37.262222-33.678222 83.086222-108.088889 100.209778-141.027555 63.658667-122.538667 108.145778-147.911111 113.521778-154.510223z" fill="#E8E9EB" p-id="2158"></path><path d="M763.847111 442.396444c5.404444-6.599111 9.159111-13.027556 13.909333-25.799111 6.172444-16.128 7.395556-36.579556 7.395556-36.579555l40.903111-41.642667-51.882667-5.774222c-11.889778-29.383111-26.396444-43.093333-40.675555-52.48-28.785778-19.029333-70.656-26.737778-132.494222-23.352889-62.094222 3.356444-103.708444 24.803556-115.598223 30.805333 19.968 5.774222 28.785778 7.708444 41.614223 17.578667 12.856889 9.870222 33.080889 38.968889 16.668444 77.027556-11.264 25.685333-157.866667 184.035556-258.275555 290.816 0 0 209.237333 83.598222 343.978666-110.563556 70.456889-111.729778 129.080889-113.436444 134.456889-120.035556z" fill="#DEDFE0" p-id="2159"></path></svg>